<svg version="1.2" xmlns="http://www.w3.org/2000/svg" viewBox="0 0 32 32" width="32" height="32">
	<title>logo-svg</title>
	<defs>
		<linearGradient id="g1" x1="9.1" y1="25.9" x2="55.2" y2="8" gradientUnits="userSpaceOnUse">
			<stop offset="0" stop-color="#43cec9"/>
			<stop offset="1" stop-color="#a6e7f2"/>
		</linearGradient>
		<linearGradient id="g2" x1="16.2" y1="32.4" x2="17.4" y2="18.6" gradientUnits="userSpaceOnUse">
			<stop offset="0" stop-color="#f1696f"/>
			<stop offset="1" stop-color="#fb9298"/>
		</linearGradient>
	</defs>
	<style>
		.s0 { fill: none } 
		.s1 { fill: url(#g1) } 
		.s2 { fill: url(#g2) } 
	</style>
	<g id="Grupo_13369">
		<path id="Retângulo_23669" class="s0" d="m8-0.8h107.8v33.6h-107.8z"/>
	</g>
	<g id="Camada_x0020_1">
		<path id="Caminho_16438" class="s1" d="m8.7 7.5q0.1-1.4 0.7-2.7 0.6-1.3 1.6-2.3 1-1 2.4-1.5 1.3-0.5 2.7-0.5 1.4 0 2.7 0.6 1.3 0.5 2.3 1.5 1 1 1.6 2.2 0.5 1.3 0.6 2.7v4.6q-0.1 0.2-0.1 0.4 0 0.2 0 0.5-0.1 0.2-0.1 0.4-0.1 0.2-0.2 0.4 0 0.2-0.1 0.4 0 0.2-0.1 0.3-0.1 0.2-0.2 0.4-0.1 0.2-0.2 0.3-0.2 0.3-0.4 0.6-0.2 0.2-0.4 0.4-0.2 0.3-0.5 0.4-0.3 0.2-0.6 0.4-0.4 0.2-0.9 0.4-0.5 0.1-1 0.2-0.5 0.2-1 0.2-0.6 0-1.1 0h-3.4q-0.2 0-0.6 0h-0.1q-0.4 0-0.9 0-0.4 0.1-0.9 0.1-0.4 0.1-0.9 0.2-0.4 0.1-0.9 0.2c0 0 0-10.8 0-10.8z"/>
		<path id="Caminho_16439" class="s2" d="m23.3 24.5c-0.1 1.9-0.9 3.6-2.2 4.9-1.4 1.3-3.2 2.1-5.1 2.1-1.9 0-3.7-0.8-5-2.1-1.4-1.3-2.2-3-2.2-4.9v-3.1q0 0 0-0.1 0.1 0 0.1 0 0-0.1 0.1-0.1 0 0 0 0 0.1-0.1 0.2-0.2 0.1 0 0.2-0.1 0 0 0.1 0 0.1-0.1 0.2-0.1 0.2-0.1 0.4-0.1 0.2-0.1 0.3-0.1 0.2-0.1 0.4-0.1 0.2 0 0.4-0.1 0.1 0 0.2 0 0.1 0 0.2 0 0.2 0 0.3 0 0.1-0.1 0.2-0.1 0.2 0 0.3 0.1h4.1q0.7 0 1.5-0.1 0.7-0.1 1.4-0.2 0.7-0.1 1.4-0.4 0.7-0.2 1.4-0.5 0.1 0 0.3-0.1 0.1-0.1 0.3-0.2 0.1 0 0.2-0.1 0.2-0.1 0.3-0.2c0 0 0 5.9 0 5.9z"/>
	</g>
</svg>